<svg width="25" height="25" viewBox="0 0 25 25" fill="none" xmlns="http://www.w3.org/2000/svg">
<path d="M24.4537 22.9762L15.3971 3.05019C14.603 1.30305 12.8499 0.173487 10.9309 0.172473L5.36097 0.169434C5.36081 0.169434 5.36065 0.169434 5.36054 0.169434C5.0886 0.169434 4.83528 0.307562 4.68803 0.536195C4.54068 0.764934 4.51966 1.05287 4.6323 1.30054L14.7898 23.6384C14.9727 24.0405 15.447 24.2182 15.8492 24.0354C16.2514 23.8525 16.4292 23.3783 16.2463 22.9761L15.7326 21.8463H22.1827L22.9971 23.6382C23.1311 23.9331 23.4218 24.1074 23.7259 24.1074C23.8366 24.1074 23.9491 24.0843 24.0565 24.0355C24.4586 23.8527 24.6365 23.3784 24.4537 22.9762ZM11.6819 12.9383H18.1339L19.4311 15.7924H12.9797L11.6819 12.9383ZM17.4067 11.3383H10.9543L9.6565 8.48425H16.1095L17.4067 11.3383ZM10.93 1.77242C12.2236 1.77311 13.4053 2.53453 13.9405 3.7122L15.3823 6.8843H8.92901L6.60343 1.77002L10.93 1.77242ZM15.005 20.2464L13.7072 17.3923H20.1583L21.4555 20.2464H15.005Z" fill="white"/>
<path d="M10.3827 20.2462H3.9168L7.53215 11.8587L6.63772 9.89172L0.964952 23.0524C0.790078 23.458 0.977218 23.9287 1.38291 24.1036C1.48611 24.1481 1.59352 24.1692 1.69917 24.1692C2.00892 24.1692 2.30379 23.9882 2.43418 23.6857L3.22712 21.8461H9.69255L9.17231 23.0521C8.99732 23.4578 9.18436 23.9286 9.59005 24.1036C9.6933 24.1481 9.80076 24.1692 9.90652 24.1692C10.2162 24.1692 10.511 23.9882 10.6415 23.6858L11.746 21.1254L10.8518 19.1589L10.3827 20.2462Z" fill="white"/>
</svg>
