<svg width="24" height="25" viewBox="0 0 24 25" fill="none" xmlns="http://www.w3.org/2000/svg">
<g clip-path="url(#clip0_27_2390)">
<path d="M5.5 22.1694V14.6694H4V9.16943C4 8.06943 4.9 7.16943 6 7.16943H9C10.1 7.16943 11 8.06943 11 9.16943V14.6694H9.5V22.1694H5.5ZM18 22.1694V16.1694H21L18.46 8.53943C18.18 7.71943 17.42 7.16943 16.56 7.16943H16.44C15.58 7.16943 14.81 7.71943 14.54 8.53943L12 16.1694H15V22.1694H18ZM7.5 6.16943C8.61 6.16943 9.5 5.27943 9.5 4.16943C9.5 3.05943 8.61 2.16943 7.5 2.16943C6.39 2.16943 5.5 3.05943 5.5 4.16943C5.5 5.27943 6.39 6.16943 7.5 6.16943ZM16.5 6.16943C17.61 6.16943 18.5 5.27943 18.5 4.16943C18.5 3.05943 17.61 2.16943 16.5 2.16943C15.39 2.16943 14.5 3.05943 14.5 4.16943C14.5 5.27943 15.39 6.16943 16.5 6.16943Z" fill="white"/>
</g>
<defs>
<clipPath id="clip0_27_2390">
<rect width="24" height="24" fill="white" transform="translate(0 0.169434)"/>
</clipPath>
</defs>
</svg>
