<svg width="1080" height="1355" viewBox="0 0 1080 1355" fill="none" xmlns="http://www.w3.org/2000/svg">
<g filter="url(#filter0_i_33_15)">
<path d="M284.519 648.238V678H281.928V653.207L269.664 674.088H268.395L256.131 653.471V678H253.541V648.238H255.814L269.083 670.758L282.193 648.238H284.519ZM316.214 678.264C312.373 678.264 309.36 677.172 307.175 674.987C305.025 672.766 303.95 669.577 303.95 665.418V648.238H306.593V665.313C306.593 668.802 307.421 671.445 309.078 673.242C310.734 675.004 313.113 675.885 316.214 675.885C319.316 675.885 321.677 675.004 323.298 673.242C324.954 671.48 325.783 668.837 325.783 665.313V648.238H328.426V665.418C328.426 669.577 327.351 672.766 325.201 674.987C323.051 677.172 320.056 678.264 316.214 678.264ZM368.645 678L361.561 668.22C360.715 668.326 359.834 668.379 358.918 668.379H350.512V678H347.869V648.238H358.918C362.724 648.238 365.702 649.136 367.852 650.934C370.037 652.696 371.129 655.163 371.129 658.335C371.129 660.661 370.513 662.634 369.279 664.255C368.081 665.841 366.354 666.987 364.098 667.692L371.605 678H368.645ZM358.812 666.159C361.949 666.159 364.328 665.489 365.949 664.15C367.605 662.775 368.433 660.837 368.433 658.335C368.433 655.832 367.605 653.912 365.949 652.573C364.328 651.233 361.949 650.564 358.812 650.564H350.512V666.159H358.812ZM406.661 669.753H389.375L385.569 678H382.873L396.67 648.238H399.313L413.163 678H410.414L406.661 669.753ZM405.604 667.533L397.992 650.934L390.379 667.533H405.604ZM427.278 648.238H429.922V675.727H447.049V678H427.278V648.238ZM495.366 678.264C492.405 678.264 489.727 677.612 487.33 676.308C484.934 674.969 483.048 673.154 481.674 670.863C480.299 668.537 479.612 665.947 479.612 663.092C479.612 660.273 480.299 657.718 481.674 655.427C483.048 653.101 484.934 651.286 487.33 649.982C489.727 648.643 492.405 647.973 495.366 647.973C497.621 647.973 499.665 648.326 501.498 649.031C503.366 649.736 504.952 650.775 506.256 652.15L504.564 653.947C502.167 651.551 499.119 650.352 495.418 650.352C492.951 650.352 490.714 650.916 488.705 652.044C486.731 653.136 485.163 654.652 484 656.59C482.872 658.529 482.308 660.696 482.308 663.092C482.308 665.489 482.872 667.674 484 669.648C485.163 671.586 486.731 673.119 488.705 674.247C490.714 675.339 492.951 675.885 495.418 675.885C499.119 675.885 502.167 674.687 504.564 672.291L506.256 674.035C504.916 675.41 503.313 676.467 501.445 677.207C499.612 677.912 497.586 678.264 495.366 678.264ZM534.012 678.264C531.051 678.264 528.373 677.612 525.977 676.308C523.58 674.969 521.695 673.154 520.32 670.863C518.946 668.537 518.258 665.947 518.258 663.092C518.258 660.273 518.946 657.718 520.32 655.427C521.695 653.101 523.58 651.286 525.977 649.982C528.373 648.643 531.051 647.973 534.012 647.973C536.972 647.973 539.651 648.643 542.047 649.982C544.444 651.286 546.329 653.101 547.704 655.427C549.078 657.718 549.765 660.273 549.765 663.092C549.765 665.947 549.078 668.537 547.704 670.863C546.329 673.154 544.444 674.969 542.047 676.308C539.651 677.612 536.972 678.264 534.012 678.264ZM534.012 675.885C536.479 675.885 538.699 675.339 540.673 674.247C542.681 673.154 544.25 671.639 545.378 669.7C546.541 667.727 547.122 665.542 547.122 663.145C547.122 660.714 546.541 658.529 545.378 656.59C544.25 654.652 542.681 653.136 540.673 652.044C538.699 650.916 536.479 650.352 534.012 650.352C531.545 650.352 529.325 650.916 527.351 652.044C525.377 653.136 523.809 654.669 522.646 656.643C521.518 658.581 520.955 660.749 520.955 663.145C520.955 665.542 521.518 667.727 522.646 669.7C523.809 671.639 525.377 673.154 527.351 674.247C529.325 675.339 531.545 675.885 534.012 675.885ZM597.354 648.238V678H594.764V653.207L582.499 674.088H581.231L568.966 653.471V678H566.376V648.238H568.649L581.918 670.758L595.028 648.238H597.354ZM628.151 648.238C631.957 648.238 634.935 649.136 637.085 650.934C639.27 652.696 640.362 655.163 640.362 658.335C640.362 661.507 639.27 663.991 637.085 665.788C634.935 667.551 631.957 668.432 628.151 668.432H619.746V678H617.102V648.238H628.151ZM628.045 666.159C631.182 666.159 633.561 665.489 635.182 664.15C636.838 662.775 637.666 660.837 637.666 658.335C637.666 655.832 636.838 653.912 635.182 652.573C633.561 651.233 631.182 650.564 628.045 650.564H619.746V666.159H628.045ZM657.401 648.238H660.044V675.727H677.172V678H657.401V648.238ZM712.492 675.727V678H691.452V648.238H711.858V650.564H694.095V661.771H709.955V664.044H694.095V675.727H712.492ZM734.244 650.564H723.46V648.238H747.672V650.564H736.887V678H734.244V650.564ZM782.764 675.727V678H761.724V648.238H782.129V650.564H764.367V661.771H780.226V664.044H764.367V675.727H782.764ZM799.441 648.238H811.494C814.771 648.238 817.626 648.872 820.058 650.141C822.489 651.374 824.357 653.119 825.661 655.374C826.965 657.63 827.617 660.203 827.617 663.092C827.617 666.018 826.965 668.608 825.661 670.863C824.357 673.119 822.489 674.881 820.058 676.15C817.626 677.383 814.771 678 811.494 678H799.441V648.238ZM811.388 675.727C814.207 675.727 816.639 675.198 818.683 674.141C820.727 673.084 822.278 671.603 823.335 669.7C824.428 667.797 824.974 665.595 824.974 663.092C824.974 660.625 824.428 658.458 823.335 656.59C822.278 654.687 820.727 653.207 818.683 652.15C816.639 651.092 814.207 650.564 811.388 650.564H802.084V675.727H811.388Z" fill="url(#paint0_linear_33_15)"/>
</g>
<rect x="185" y="714" width="709" height="120" rx="55" stroke="#C7C7C7" stroke-width="10"/>
<mask id="mask0_33_15" style="mask-type:alpha" maskUnits="userSpaceOnUse" x="218" y="729" width="642" height="90">
<rect x="218" y="729" width="30" height="90" rx="10" fill="#C4C4C4"/>
<rect x="254" y="729" width="30" height="90" rx="10" fill="#C4C4C4"/>
<rect x="290" y="729" width="30" height="90" rx="10" fill="#C4C4C4"/>
<rect x="326" y="729" width="30" height="90" rx="10" fill="#C4C4C4"/>
<rect x="362" y="729" width="30" height="90" rx="10" fill="#C4C4C4"/>
<rect x="398" y="729" width="30" height="90" rx="10" fill="#C4C4C4"/>
<rect x="434" y="729" width="30" height="90" rx="10" fill="#C4C4C4"/>
<rect x="470" y="729" width="30" height="90" rx="10" fill="#C4C4C4"/>
<rect x="506" y="729" width="30" height="90" rx="10" fill="#C4C4C4"/>
<rect x="542" y="729" width="30" height="90" rx="10" fill="#C4C4C4"/>
<rect x="578" y="729" width="30" height="90" rx="10" fill="#C4C4C4"/>
<rect x="614" y="729" width="30" height="90" rx="10" fill="#C4C4C4"/>
<rect x="650" y="729" width="30" height="90" rx="10" fill="#C4C4C4"/>
<rect x="686" y="729" width="30" height="90" rx="10" fill="#C4C4C4"/>
<rect x="722" y="729" width="30" height="90" rx="10" fill="#C4C4C4"/>
<rect x="758" y="729" width="30" height="90" rx="10" fill="#C4C4C4"/>
<rect x="794" y="729" width="30" height="90" rx="10" fill="#C4C4C4"/>
<rect x="830" y="729" width="30" height="90" rx="10" fill="#C4C4C4"/>
</mask>
<g mask="url(#mask0_33_15)">
<path d="M196 773.5C196 748.371 216.371 728 241.5 728H830.5C855.629 728 876 748.371 876 773.5V773.5C876 798.629 855.629 819 830.5 819H241.5C216.371 819 196 798.629 196 773.5V773.5Z" fill="url(#paint1_linear_33_15)"/>
</g>
<path d="M529.841 568.224C527.604 556.397 517.582 547.804 505.821 547.719H503.419C498.533 548.145 493.894 550.101 490.084 553.335C483.293 559.12 480.311 566.862 481.057 577.072H530.255V575.881C530.255 574.264 530.255 572.648 530.172 571.116C530.172 570.181 530.006 569.16 529.841 568.224Z" fill="#5700FF"/>
<path d="M520.646 508.156C518.576 508.497 517.167 510.794 517.167 514.282C517.25 515.728 517.747 517.175 518.576 518.366C520.563 521.003 523.628 520.408 524.953 517.175C525.947 514.622 525.45 511.73 523.793 509.603C523.048 508.582 521.889 508.071 520.646 508.156Z" fill="#5700FF"/>
<path d="M567.609 537.338C586.41 531.723 597.177 511.474 591.711 492.161C591.131 490.289 590.469 488.417 589.64 486.63L587.735 487.056L586.162 487.396C587.653 490.969 588.646 494.713 588.978 498.542C590.634 514.792 582.02 530.362 567.609 537.338Z" fill="#5700FF"/>
<path d="M578.045 460H577.797C600.491 471.401 609.85 499.563 598.751 522.79C593.202 534.446 583.263 543.124 571.253 547.038L534.645 526.023C538.372 518.791 538.455 510.113 534.728 502.881C548.477 493.607 563.551 486.545 579.453 482.206C582.186 481.44 584.92 480.76 587.57 480.249C568.934 456.001 533.568 463.488 525.037 491.31L524.126 493.862C519.571 492.671 516.423 494.288 512.696 496.074C512.945 495.479 514.932 471.656 537.958 460H436V577.156H471.201C471.201 575.54 471.283 574.178 471.283 572.987V537.083C471.118 531.638 471.946 525.852 479.152 524.151L506.484 517.515V537.764C521.061 538.615 532.16 546.442 537.792 560.65C539.283 564.649 540.028 568.903 539.946 573.242V577.156H555.103C554.523 575.71 554.191 574.178 554.109 572.562C554.109 566.096 559.161 560.906 565.456 560.906C571.75 560.906 576.803 566.096 576.803 572.562C576.72 574.093 576.471 575.71 575.892 577.156H590.717C590.966 569.924 590.634 566.691 587.653 560.65C585.748 557.162 583.015 554.184 579.784 551.972C583.097 550.611 586.245 548.909 589.226 546.867C593.202 550.696 596.267 555.375 598.254 560.65C601.153 567.882 600.325 574.689 600.491 577.156H644.057V460H578.045ZM457.286 517.855C455.381 519.386 452.731 519.046 451.24 517.089C449.997 515.473 449.997 513.261 451.24 511.644L454.222 508.496L457.286 511.644C458.943 513.346 458.943 516.153 457.286 517.855ZM486.275 492.416L478.821 493.777C476.833 494.202 475.259 495.819 474.845 497.946L473.437 505.603C473.437 506.199 473.023 506.624 472.443 506.624C471.863 506.624 471.449 506.199 471.449 505.603L470.041 497.946C469.71 495.819 468.136 494.202 466.066 493.777L458.611 492.416C458.031 492.246 457.7 491.65 457.866 491.054C457.949 490.714 458.28 490.374 458.611 490.289L466.066 488.927C468.136 488.502 469.71 486.886 470.041 484.758L471.449 477.101C471.449 476.506 471.863 476.08 472.443 476.08C473.023 476.08 473.437 476.506 473.437 477.101L474.845 484.758C475.259 486.886 476.833 488.502 478.821 488.927L486.275 490.289C486.855 490.459 487.186 491.054 487.02 491.65C486.937 491.99 486.606 492.331 486.275 492.416ZM521.558 526.873C515.678 526.873 511.619 520.237 511.619 514.367C511.619 502.115 521.724 497.691 527.687 504.667C533.651 511.644 530.421 526.873 521.558 526.873ZM620.866 504.582L623.682 501.604L626.498 504.582C628.071 506.199 628.071 508.751 626.498 510.368C624.924 511.984 622.439 511.984 620.866 510.368C619.292 508.751 619.292 506.199 620.866 504.582ZM632.627 548.654L625.67 550.015C623.765 550.356 622.274 551.887 621.86 553.844L620.617 560.991C620.452 561.501 619.872 561.842 619.375 561.671C619.043 561.586 618.795 561.331 618.712 560.991L617.387 553.844C617.056 551.887 615.565 550.356 613.66 550.015L606.703 548.654C606.206 548.484 605.874 547.888 606.04 547.378C606.123 547.038 606.371 546.782 606.703 546.697L613.66 545.421C615.565 544.996 617.056 543.464 617.387 541.507L618.712 534.361C618.878 533.85 619.458 533.51 619.955 533.68C620.286 533.765 620.534 534.02 620.617 534.361L621.86 541.507C622.274 543.464 623.765 544.996 625.67 545.421L632.627 546.697C633.124 546.867 633.455 547.463 633.289 547.973C633.207 548.314 632.958 548.569 632.627 548.654Z" fill="#5700FF"/>
<defs>
<filter id="filter0_i_33_15" x="253.541" y="647.973" width="574.077" height="39.4053" filterUnits="userSpaceOnUse" color-interpolation-filters="sRGB">
<feFlood flood-opacity="0" result="BackgroundImageFix"/>
<feBlend mode="normal" in="SourceGraphic" in2="BackgroundImageFix" result="shape"/>
<feColorMatrix in="SourceAlpha" type="matrix" values="0 0 0 0 0 0 0 0 0 0 0 0 0 0 0 0 0 0 127 0" result="hardAlpha"/>
<feOffset dy="9.11443"/>
<feGaussianBlur stdDeviation="4.55721"/>
<feComposite in2="hardAlpha" operator="arithmetic" k2="-1" k3="1"/>
<feColorMatrix type="matrix" values="0 0 0 0 1 0 0 0 0 1 0 0 0 0 1 0 0 0 0.25 0"/>
<feBlend mode="normal" in2="shape" result="effect1_innerShadow_33_15"/>
</filter>
<linearGradient id="paint0_linear_33_15" x1="208" y1="660" x2="870" y2="660" gradientUnits="userSpaceOnUse">
<stop offset="0.786458"/>
<stop offset="1" stop-color="white"/>
</linearGradient>
<linearGradient id="paint1_linear_33_15" x1="188.704" y1="773.5" x2="852.652" y2="773.5" gradientUnits="userSpaceOnUse">
<stop stop-color="#5700FF" stop-opacity="0"/>
<stop offset="1" stop-color="#5500FF"/>
</linearGradient>
</defs>
</svg>
